<?xml version="1.0" encoding="utf-8" ?>
<svg baseProfile="full" height="40px" version="1.1" viewBox="0 0 96 40" width="96px" xmlns="http://www.w3.org/2000/svg" xmlns:ev="http://www.w3.org/2001/xml-events" xmlns:xlink="http://www.w3.org/1999/xlink"><defs /><rect fill="#111111" height="8" stroke="none" width="8" x="64" y="0" /><rect fill="#111111" height="8" stroke="none" width="8" x="72" y="0" /><rect fill="#111111" height="8" stroke="none" width="8" x="64" y="8" /><rect fill="#111111" height="8" stroke="none" width="8" x="72" y="8" /><rect fill="#111111" height="8" stroke="none" width="8" x="80" y="8" /><rect fill="#111111" height="8" stroke="none" width="8" x="0" y="16" /><rect fill="#111111" height="8" stroke="none" width="8" x="8" y="16" /><rect fill="#111111" height="8" stroke="none" width="8" x="16" y="16" /><rect fill="#111111" height="8" stroke="none" width="8" x="24" y="16" /><rect fill="#111111" height="8" stroke="none" width="8" x="32" y="16" /><rect fill="#111111" height="8" stroke="none" width="8" x="40" y="16" /><rect fill="#111111" height="8" stroke="none" width="8" x="48" y="16" /><rect fill="#111111" height="8" stroke="none" width="8" x="56" y="16" /><rect fill="#111111" height="8" stroke="none" width="8" x="64" y="16" /><rect fill="#111111" height="8" stroke="none" width="8" x="72" y="16" /><rect fill="#111111" height="8" stroke="none" width="8" x="80" y="16" /><rect fill="#111111" height="8" stroke="none" width="8" x="88" y="16" /><rect fill="#111111" height="8" stroke="none" width="8" x="64" y="24" /><rect fill="#111111" height="8" stroke="none" width="8" x="72" y="24" /><rect fill="#111111" height="8" stroke="none" width="8" x="80" y="24" /><rect fill="#111111" height="8" stroke="none" width="8" x="64" y="32" /><rect fill="#111111" height="8" stroke="none" width="8" x="72" y="32" /></svg>