<?xml version="1.0" encoding="utf-8" ?>
<svg baseProfile="full" height="156px" version="1.1" viewBox="0 0 540 156" width="540px" xmlns="http://www.w3.org/2000/svg" xmlns:ev="http://www.w3.org/2001/xml-events" xmlns:xlink="http://www.w3.org/1999/xlink"><defs /><rect fill="#111111" height="12" stroke="none" width="12" x="30" y="54" /><rect fill="#111111" height="12" stroke="none" width="12" x="78" y="54" /><rect fill="#111111" height="12" stroke="none" width="12" x="30" y="66" /><rect fill="#111111" height="12" stroke="none" width="12" x="66" y="66" /><rect fill="#111111" height="12" stroke="none" width="12" x="30" y="78" /><rect fill="#111111" height="12" stroke="none" width="12" x="54" y="78" /><rect fill="#111111" height="12" stroke="none" width="24" x="30" y="90" /><rect fill="#111111" height="12" stroke="none" width="12" x="30" y="102" /><rect fill="#111111" height="12" stroke="none" width="12" x="54" y="102" /><rect fill="#111111" height="12" stroke="none" width="12" x="30" y="114" /><rect fill="#111111" height="12" stroke="none" width="12" x="66" y="114" /><rect fill="#111111" height="12" stroke="none" width="12" x="30" y="126" /><rect fill="#111111" height="12" stroke="none" width="12" x="78" y="126" /><rect fill="#111111" height="12" stroke="none" width="36" x="114" y="66" /><rect fill="#111111" height="12" stroke="none" width="12" x="102" y="78" /><rect fill="#111111" height="12" stroke="none" width="12" x="150" y="78" /><rect fill="#111111" height="12" stroke="none" width="12" x="102" y="90" /><rect fill="#111111" height="12" stroke="none" width="12" x="150" y="90" /><rect fill="#111111" height="12" stroke="none" width="12" x="102" y="102" /><rect fill="#111111" height="12" stroke="none" width="12" x="150" y="102" /><rect fill="#111111" height="12" stroke="none" width="12" x="102" y="114" /><rect fill="#111111" height="12" stroke="none" width="12" x="150" y="114" /><rect fill="#111111" height="12" stroke="none" width="36" x="114" y="126" /><rect fill="#111111" height="12" stroke="none" width="24" x="186" y="54" /><rect fill="#111111" height="12" stroke="none" width="12" x="198" y="66" /><rect fill="#111111" height="12" stroke="none" width="12" x="198" y="78" /><rect fill="#111111" height="12" stroke="none" width="12" x="198" y="90" /><rect fill="#111111" height="12" stroke="none" width="12" x="198" y="102" /><rect fill="#111111" height="12" stroke="none" width="12" x="198" y="114" /><rect fill="#111111" height="12" stroke="none" width="36" x="186" y="126" /><rect fill="#111111" height="12" stroke="none" width="36" x="246" y="66" /><rect fill="#111111" height="12" stroke="none" width="12" x="234" y="78" /><rect fill="#111111" height="12" stroke="none" width="12" x="282" y="78" /><rect fill="#111111" height="12" stroke="none" width="12" x="234" y="90" /><rect fill="#111111" height="12" stroke="none" width="12" x="282" y="90" /><rect fill="#111111" height="12" stroke="none" width="12" x="234" y="102" /><rect fill="#111111" height="12" stroke="none" width="12" x="282" y="102" /><rect fill="#111111" height="12" stroke="none" width="12" x="234" y="114" /><rect fill="#111111" height="12" stroke="none" width="12" x="282" y="114" /><rect fill="#111111" height="12" stroke="none" width="36" x="246" y="126" /><rect fill="#111111" height="12" stroke="none" width="12" x="306" y="54" /><rect fill="#111111" height="12" stroke="none" width="12" x="306" y="66" /><rect fill="#111111" height="12" stroke="none" width="48" x="306" y="78" /><rect fill="#111111" height="12" stroke="none" width="12" x="306" y="90" /><rect fill="#111111" height="12" stroke="none" width="12" x="354" y="90" /><rect fill="#111111" height="12" stroke="none" width="12" x="306" y="102" /><rect fill="#111111" height="12" stroke="none" width="12" x="354" y="102" /><rect fill="#111111" height="12" stroke="none" width="12" x="306" y="114" /><rect fill="#111111" height="12" stroke="none" width="12" x="354" y="114" /><rect fill="#111111" height="12" stroke="none" width="48" x="306" y="126" /><rect fill="#111111" height="12" stroke="none" width="36" x="390" y="66" /><rect fill="#111111" height="12" stroke="none" width="12" x="378" y="78" /><rect fill="#111111" height="12" stroke="none" width="12" x="426" y="78" /><rect fill="#111111" height="12" stroke="none" width="60" x="378" y="90" /><rect fill="#111111" height="12" stroke="none" width="12" x="378" y="102" /><rect fill="#111111" height="12" stroke="none" width="12" x="378" y="114" /><rect fill="#111111" height="12" stroke="none" width="48" x="390" y="126" /><rect fill="#111111" height="12" stroke="none" width="12" x="390" y="18" /><rect fill="#111111" height="12" stroke="none" width="12" x="402" y="30" /><rect fill="#111111" height="12" stroke="none" width="12" x="414" y="18" /><rect fill="#111111" height="12" stroke="none" width="12" x="450" y="54" /><rect fill="#111111" height="12" stroke="none" width="12" x="450" y="66" /><rect fill="#111111" height="12" stroke="none" width="48" x="450" y="78" /><rect fill="#111111" height="12" stroke="none" width="12" x="450" y="90" /><rect fill="#111111" height="12" stroke="none" width="12" x="498" y="90" /><rect fill="#111111" height="12" stroke="none" width="12" x="450" y="102" /><rect fill="#111111" height="12" stroke="none" width="12" x="498" y="102" /><rect fill="#111111" height="12" stroke="none" width="12" x="450" y="114" /><rect fill="#111111" height="12" stroke="none" width="12" x="498" y="114" /><rect fill="#111111" height="12" stroke="none" width="12" x="450" y="126" /><rect fill="#111111" height="12" stroke="none" width="12" x="498" y="126" /></svg>