<?xml version="1.0" encoding="utf-8" ?>
<svg baseProfile="full" height="156px" version="1.1" viewBox="0 0 1872 156" width="1872px" xmlns="http://www.w3.org/2000/svg" xmlns:ev="http://www.w3.org/2001/xml-events" xmlns:xlink="http://www.w3.org/1999/xlink"><defs /><rect fill="#111111" height="12" stroke="none" width="36" x="42" y="54" /><rect fill="#111111" height="12" stroke="none" width="12" x="30" y="66" /><rect fill="#111111" height="12" stroke="none" width="12" x="78" y="66" /><rect fill="#111111" height="12" stroke="none" width="12" x="30" y="78" /><rect fill="#111111" height="12" stroke="none" width="12" x="78" y="78" /><rect fill="#111111" height="12" stroke="none" width="60" x="30" y="90" /><rect fill="#111111" height="12" stroke="none" width="12" x="30" y="102" /><rect fill="#111111" height="12" stroke="none" width="12" x="78" y="102" /><rect fill="#111111" height="12" stroke="none" width="12" x="30" y="114" /><rect fill="#111111" height="12" stroke="none" width="12" x="78" y="114" /><rect fill="#111111" height="12" stroke="none" width="12" x="30" y="126" /><rect fill="#111111" height="12" stroke="none" width="12" x="78" y="126" /><rect fill="#111111" height="12" stroke="none" width="12" x="102" y="66" /><rect fill="#111111" height="12" stroke="none" width="12" x="150" y="66" /><rect fill="#111111" height="12" stroke="none" width="12" x="102" y="78" /><rect fill="#111111" height="12" stroke="none" width="12" x="150" y="78" /><rect fill="#111111" height="12" stroke="none" width="12" x="102" y="90" /><rect fill="#111111" height="12" stroke="none" width="12" x="150" y="90" /><rect fill="#111111" height="12" stroke="none" width="12" x="102" y="102" /><rect fill="#111111" height="12" stroke="none" width="12" x="150" y="102" /><rect fill="#111111" height="12" stroke="none" width="12" x="102" y="114" /><rect fill="#111111" height="12" stroke="none" width="24" x="138" y="114" /><rect fill="#111111" height="12" stroke="none" width="24" x="114" y="126" /><rect fill="#111111" height="12" stroke="none" width="12" x="150" y="126" /><rect fill="#111111" height="12" stroke="none" width="12" x="186" y="54" /><rect fill="#111111" height="12" stroke="none" width="12" x="186" y="66" /><rect fill="#111111" height="12" stroke="none" width="36" x="174" y="78" /><rect fill="#111111" height="12" stroke="none" width="12" x="186" y="90" /><rect fill="#111111" height="12" stroke="none" width="12" x="186" y="102" /><rect fill="#111111" height="12" stroke="none" width="12" x="186" y="114" /><rect fill="#111111" height="12" stroke="none" width="12" x="222" y="114" /><rect fill="#111111" height="12" stroke="none" width="24" x="198" y="126" /><rect fill="#111111" height="12" stroke="none" width="36" x="258" y="66" /><rect fill="#111111" height="12" stroke="none" width="12" x="246" y="78" /><rect fill="#111111" height="12" stroke="none" width="12" x="294" y="78" /><rect fill="#111111" height="12" stroke="none" width="12" x="246" y="90" /><rect fill="#111111" height="12" stroke="none" width="12" x="294" y="90" /><rect fill="#111111" height="12" stroke="none" width="12" x="246" y="102" /><rect fill="#111111" height="12" stroke="none" width="12" x="294" y="102" /><rect fill="#111111" height="12" stroke="none" width="12" x="246" y="114" /><rect fill="#111111" height="12" stroke="none" width="12" x="294" y="114" /><rect fill="#111111" height="12" stroke="none" width="36" x="258" y="126" /><rect fill="#111111" height="12" stroke="none" width="24" x="318" y="66" /><rect fill="#111111" height="12" stroke="none" width="12" x="354" y="66" /><rect fill="#111111" height="12" stroke="none" width="12" x="318" y="78" /><rect fill="#111111" height="12" stroke="none" width="12" x="342" y="78" /><rect fill="#111111" height="12" stroke="none" width="12" x="366" y="78" /><rect fill="#111111" height="12" stroke="none" width="12" x="318" y="90" /><rect fill="#111111" height="12" stroke="none" width="12" x="342" y="90" /><rect fill="#111111" height="12" stroke="none" width="12" x="366" y="90" /><rect fill="#111111" height="12" stroke="none" width="12" x="318" y="102" /><rect fill="#111111" height="12" stroke="none" width="12" x="342" y="102" /><rect fill="#111111" height="12" stroke="none" width="12" x="366" y="102" /><rect fill="#111111" height="12" stroke="none" width="12" x="318" y="114" /><rect fill="#111111" height="12" stroke="none" width="12" x="342" y="114" /><rect fill="#111111" height="12" stroke="none" width="12" x="366" y="114" /><rect fill="#111111" height="12" stroke="none" width="12" x="318" y="126" /><rect fill="#111111" height="12" stroke="none" width="12" x="342" y="126" /><rect fill="#111111" height="12" stroke="none" width="12" x="366" y="126" /><rect fill="#111111" height="12" stroke="none" width="36" x="402" y="66" /><rect fill="#111111" height="12" stroke="none" width="12" x="438" y="78" /><rect fill="#111111" height="12" stroke="none" width="48" x="402" y="90" /><rect fill="#111111" height="12" stroke="none" width="12" x="390" y="102" /><rect fill="#111111" height="12" stroke="none" width="12" x="438" y="102" /><rect fill="#111111" height="12" stroke="none" width="12" x="390" y="114" /><rect fill="#111111" height="12" stroke="none" width="12" x="438" y="114" /><rect fill="#111111" height="12" stroke="none" width="48" x="402" y="126" /><rect fill="#111111" height="12" stroke="none" width="12" x="474" y="54" /><rect fill="#111111" height="12" stroke="none" width="12" x="474" y="66" /><rect fill="#111111" height="12" stroke="none" width="36" x="462" y="78" /><rect fill="#111111" height="12" stroke="none" width="12" x="474" y="90" /><rect fill="#111111" height="12" stroke="none" width="12" x="474" y="102" /><rect fill="#111111" height="12" stroke="none" width="12" x="474" y="114" /><rect fill="#111111" height="12" stroke="none" width="12" x="510" y="114" /><rect fill="#111111" height="12" stroke="none" width="24" x="486" y="126" /><rect fill="#111111" height="12" stroke="none" width="36" x="618" y="66" /><rect fill="#111111" height="12" stroke="none" width="12" x="606" y="78" /><rect fill="#111111" height="12" stroke="none" width="12" x="654" y="78" /><rect fill="#111111" height="12" stroke="none" width="12" x="606" y="90" /><rect fill="#111111" height="12" stroke="none" width="12" x="654" y="90" /><rect fill="#111111" height="12" stroke="none" width="12" x="606" y="102" /><rect fill="#111111" height="12" stroke="none" width="12" x="654" y="102" /><rect fill="#111111" height="12" stroke="none" width="12" x="606" y="114" /><rect fill="#111111" height="12" stroke="none" width="12" x="654" y="114" /><rect fill="#111111" height="12" stroke="none" width="36" x="618" y="126" /><rect fill="#111111" height="12" stroke="none" width="24" x="702" y="54" /><rect fill="#111111" height="12" stroke="none" width="12" x="690" y="66" /><rect fill="#111111" height="12" stroke="none" width="12" x="726" y="66" /><rect fill="#111111" height="12" stroke="none" width="12" x="690" y="78" /><rect fill="#111111" height="12" stroke="none" width="36" x="678" y="90" /><rect fill="#111111" height="12" stroke="none" width="12" x="690" y="102" /><rect fill="#111111" height="12" stroke="none" width="12" x="690" y="114" /><rect fill="#111111" height="12" stroke="none" width="12" x="690" y="126" /><rect fill="#111111" height="12" stroke="none" width="24" x="774" y="54" /><rect fill="#111111" height="12" stroke="none" width="12" x="762" y="66" /><rect fill="#111111" height="12" stroke="none" width="12" x="798" y="66" /><rect fill="#111111" height="12" stroke="none" width="12" x="762" y="78" /><rect fill="#111111" height="12" stroke="none" width="36" x="750" y="90" /><rect fill="#111111" height="12" stroke="none" width="12" x="762" y="102" /><rect fill="#111111" height="12" stroke="none" width="12" x="762" y="114" /><rect fill="#111111" height="12" stroke="none" width="12" x="762" y="126" /><rect fill="#111111" height="12" stroke="none" width="24" x="834" y="54" /><rect fill="#111111" height="12" stroke="none" width="12" x="846" y="66" /><rect fill="#111111" height="12" stroke="none" width="12" x="846" y="78" /><rect fill="#111111" height="12" stroke="none" width="12" x="846" y="90" /><rect fill="#111111" height="12" stroke="none" width="12" x="846" y="102" /><rect fill="#111111" height="12" stroke="none" width="12" x="846" y="114" /><rect fill="#111111" height="12" stroke="none" width="36" x="834" y="126" /><rect fill="#111111" height="12" stroke="none" width="12" x="906" y="54" /><rect fill="#111111" height="12" stroke="none" width="24" x="894" y="78" /><rect fill="#111111" height="12" stroke="none" width="12" x="906" y="90" /><rect fill="#111111" height="12" stroke="none" width="12" x="906" y="102" /><rect fill="#111111" height="12" stroke="none" width="12" x="906" y="114" /><rect fill="#111111" height="12" stroke="none" width="36" x="894" y="126" /><rect fill="#111111" height="12" stroke="none" width="48" x="942" y="66" /><rect fill="#111111" height="12" stroke="none" width="12" x="942" y="78" /><rect fill="#111111" height="12" stroke="none" width="12" x="990" y="78" /><rect fill="#111111" height="12" stroke="none" width="12" x="942" y="90" /><rect fill="#111111" height="12" stroke="none" width="12" x="990" y="90" /><rect fill="#111111" height="12" stroke="none" width="12" x="942" y="102" /><rect fill="#111111" height="12" stroke="none" width="12" x="990" y="102" /><rect fill="#111111" height="12" stroke="none" width="12" x="942" y="114" /><rect fill="#111111" height="12" stroke="none" width="12" x="990" y="114" /><rect fill="#111111" height="12" stroke="none" width="12" x="942" y="126" /><rect fill="#111111" height="12" stroke="none" width="12" x="990" y="126" /><rect fill="#111111" height="12" stroke="none" width="36" x="1026" y="66" /><rect fill="#111111" height="12" stroke="none" width="12" x="1014" y="78" /><rect fill="#111111" height="12" stroke="none" width="12" x="1062" y="78" /><rect fill="#111111" height="12" stroke="none" width="60" x="1014" y="90" /><rect fill="#111111" height="12" stroke="none" width="12" x="1014" y="102" /><rect fill="#111111" height="12" stroke="none" width="12" x="1014" y="114" /><rect fill="#111111" height="12" stroke="none" width="48" x="1026" y="126" /><rect fill="#111111" height="12" stroke="none" width="48" x="1158" y="66" /><rect fill="#111111" height="12" stroke="none" width="12" x="1158" y="78" /><rect fill="#111111" height="12" stroke="none" width="12" x="1206" y="78" /><rect fill="#111111" height="12" stroke="none" width="12" x="1158" y="90" /><rect fill="#111111" height="12" stroke="none" width="12" x="1206" y="90" /><rect fill="#111111" height="12" stroke="none" width="48" x="1158" y="102" /><rect fill="#111111" height="12" stroke="none" width="12" x="1158" y="114" /><rect fill="#111111" height="12" stroke="none" width="12" x="1158" y="126" /><rect fill="#111111" height="12" stroke="none" width="12" x="1230" y="54" /><rect fill="#111111" height="12" stroke="none" width="12" x="1230" y="66" /><rect fill="#111111" height="12" stroke="none" width="48" x="1230" y="78" /><rect fill="#111111" height="12" stroke="none" width="12" x="1230" y="90" /><rect fill="#111111" height="12" stroke="none" width="12" x="1278" y="90" /><rect fill="#111111" height="12" stroke="none" width="12" x="1230" y="102" /><rect fill="#111111" height="12" stroke="none" width="12" x="1278" y="102" /><rect fill="#111111" height="12" stroke="none" width="12" x="1230" y="114" /><rect fill="#111111" height="12" stroke="none" width="12" x="1278" y="114" /><rect fill="#111111" height="12" stroke="none" width="12" x="1230" y="126" /><rect fill="#111111" height="12" stroke="none" width="12" x="1278" y="126" /><rect fill="#111111" height="12" stroke="none" width="36" x="1314" y="66" /><rect fill="#111111" height="12" stroke="none" width="12" x="1302" y="78" /><rect fill="#111111" height="12" stroke="none" width="12" x="1350" y="78" /><rect fill="#111111" height="12" stroke="none" width="12" x="1302" y="90" /><rect fill="#111111" height="12" stroke="none" width="12" x="1350" y="90" /><rect fill="#111111" height="12" stroke="none" width="12" x="1302" y="102" /><rect fill="#111111" height="12" stroke="none" width="12" x="1350" y="102" /><rect fill="#111111" height="12" stroke="none" width="12" x="1302" y="114" /><rect fill="#111111" height="12" stroke="none" width="12" x="1350" y="114" /><rect fill="#111111" height="12" stroke="none" width="36" x="1314" y="126" /><rect fill="#111111" height="12" stroke="none" width="12" x="1386" y="54" /><rect fill="#111111" height="12" stroke="none" width="12" x="1386" y="66" /><rect fill="#111111" height="12" stroke="none" width="36" x="1374" y="78" /><rect fill="#111111" height="12" stroke="none" width="12" x="1386" y="90" /><rect fill="#111111" height="12" stroke="none" width="12" x="1386" y="102" /><rect fill="#111111" height="12" stroke="none" width="12" x="1386" y="114" /><rect fill="#111111" height="12" stroke="none" width="12" x="1422" y="114" /><rect fill="#111111" height="12" stroke="none" width="24" x="1398" y="126" /><rect fill="#111111" height="12" stroke="none" width="36" x="1458" y="66" /><rect fill="#111111" height="12" stroke="none" width="12" x="1446" y="78" /><rect fill="#111111" height="12" stroke="none" width="12" x="1494" y="78" /><rect fill="#111111" height="12" stroke="none" width="12" x="1446" y="90" /><rect fill="#111111" height="12" stroke="none" width="12" x="1494" y="90" /><rect fill="#111111" height="12" stroke="none" width="12" x="1446" y="102" /><rect fill="#111111" height="12" stroke="none" width="12" x="1494" y="102" /><rect fill="#111111" height="12" stroke="none" width="12" x="1446" y="114" /><rect fill="#111111" height="12" stroke="none" width="12" x="1494" y="114" /><rect fill="#111111" height="12" stroke="none" width="36" x="1458" y="126" /><rect fill="#111111" height="12" stroke="none" width="24" x="1602" y="54" /><rect fill="#111111" height="12" stroke="none" width="12" x="1614" y="66" /><rect fill="#111111" height="12" stroke="none" width="12" x="1614" y="78" /><rect fill="#111111" height="12" stroke="none" width="12" x="1614" y="90" /><rect fill="#111111" height="12" stroke="none" width="12" x="1614" y="102" /><rect fill="#111111" height="12" stroke="none" width="12" x="1614" y="114" /><rect fill="#111111" height="12" stroke="none" width="36" x="1602" y="126" /><rect fill="#111111" height="12" stroke="none" width="12" x="1674" y="54" /><rect fill="#111111" height="12" stroke="none" width="24" x="1662" y="78" /><rect fill="#111111" height="12" stroke="none" width="12" x="1674" y="90" /><rect fill="#111111" height="12" stroke="none" width="12" x="1674" y="102" /><rect fill="#111111" height="12" stroke="none" width="12" x="1674" y="114" /><rect fill="#111111" height="12" stroke="none" width="36" x="1662" y="126" /><rect fill="#111111" height="12" stroke="none" width="24" x="1734" y="54" /><rect fill="#111111" height="12" stroke="none" width="12" x="1722" y="66" /><rect fill="#111111" height="12" stroke="none" width="12" x="1758" y="66" /><rect fill="#111111" height="12" stroke="none" width="12" x="1722" y="78" /><rect fill="#111111" height="12" stroke="none" width="36" x="1710" y="90" /><rect fill="#111111" height="12" stroke="none" width="12" x="1722" y="102" /><rect fill="#111111" height="12" stroke="none" width="12" x="1722" y="114" /><rect fill="#111111" height="12" stroke="none" width="12" x="1722" y="126" /><rect fill="#111111" height="12" stroke="none" width="36" x="1794" y="66" /><rect fill="#111111" height="12" stroke="none" width="12" x="1782" y="78" /><rect fill="#111111" height="12" stroke="none" width="12" x="1830" y="78" /><rect fill="#111111" height="12" stroke="none" width="60" x="1782" y="90" /><rect fill="#111111" height="12" stroke="none" width="12" x="1782" y="102" /><rect fill="#111111" height="12" stroke="none" width="12" x="1782" y="114" /><rect fill="#111111" height="12" stroke="none" width="48" x="1794" y="126" /></svg>