<?xml version="1.0" encoding="utf-8" ?>
<svg baseProfile="full" height="298px" version="1.1" viewBox="0 0 1464 298" width="1464px" xmlns="http://www.w3.org/2000/svg" xmlns:ev="http://www.w3.org/2001/xml-events" xmlns:xlink="http://www.w3.org/1999/xlink"><defs /><rect fill="#111111" height="12" stroke="none" width="48" x="30" y="54" /><rect fill="#111111" height="12" stroke="none" width="12" x="30" y="66" /><rect fill="#111111" height="12" stroke="none" width="12" x="78" y="66" /><rect fill="#111111" height="12" stroke="none" width="12" x="30" y="78" /><rect fill="#111111" height="12" stroke="none" width="12" x="78" y="78" /><rect fill="#111111" height="12" stroke="none" width="48" x="30" y="90" /><rect fill="#111111" height="12" stroke="none" width="12" x="30" y="102" /><rect fill="#111111" height="12" stroke="none" width="12" x="30" y="114" /><rect fill="#111111" height="12" stroke="none" width="12" x="30" y="126" /><rect fill="#111111" height="12" stroke="none" width="36" x="114" y="66" /><rect fill="#111111" height="12" stroke="none" width="12" x="150" y="78" /><rect fill="#111111" height="12" stroke="none" width="48" x="114" y="90" /><rect fill="#111111" height="12" stroke="none" width="12" x="102" y="102" /><rect fill="#111111" height="12" stroke="none" width="12" x="150" y="102" /><rect fill="#111111" height="12" stroke="none" width="12" x="102" y="114" /><rect fill="#111111" height="12" stroke="none" width="12" x="150" y="114" /><rect fill="#111111" height="12" stroke="none" width="48" x="114" y="126" /><rect fill="#111111" height="12" stroke="none" width="48" x="174" y="66" /><rect fill="#111111" height="12" stroke="none" width="12" x="174" y="78" /><rect fill="#111111" height="12" stroke="none" width="12" x="222" y="78" /><rect fill="#111111" height="12" stroke="none" width="12" x="174" y="90" /><rect fill="#111111" height="12" stroke="none" width="12" x="222" y="90" /><rect fill="#111111" height="12" stroke="none" width="48" x="174" y="102" /><rect fill="#111111" height="12" stroke="none" width="12" x="174" y="114" /><rect fill="#111111" height="12" stroke="none" width="12" x="174" y="126" /><rect fill="#111111" height="12" stroke="none" width="12" x="270" y="54" /><rect fill="#111111" height="12" stroke="none" width="24" x="258" y="78" /><rect fill="#111111" height="12" stroke="none" width="12" x="270" y="90" /><rect fill="#111111" height="12" stroke="none" width="12" x="270" y="102" /><rect fill="#111111" height="12" stroke="none" width="12" x="270" y="114" /><rect fill="#111111" height="12" stroke="none" width="36" x="258" y="126" /><rect fill="#111111" height="12" stroke="none" width="12" x="270" y="30" /><rect fill="#111111" height="12" stroke="none" width="12" x="282" y="18" /><rect fill="#111111" height="12" stroke="none" width="12" x="306" y="66" /><rect fill="#111111" height="12" stroke="none" width="24" x="330" y="66" /><rect fill="#111111" height="12" stroke="none" width="24" x="306" y="78" /><rect fill="#111111" height="12" stroke="none" width="12" x="354" y="78" /><rect fill="#111111" height="12" stroke="none" width="12" x="306" y="90" /><rect fill="#111111" height="12" stroke="none" width="12" x="306" y="102" /><rect fill="#111111" height="12" stroke="none" width="12" x="306" y="114" /><rect fill="#111111" height="12" stroke="none" width="12" x="306" y="126" /><rect fill="#111111" height="12" stroke="none" width="36" x="390" y="66" /><rect fill="#111111" height="12" stroke="none" width="12" x="378" y="78" /><rect fill="#111111" height="12" stroke="none" width="12" x="426" y="78" /><rect fill="#111111" height="12" stroke="none" width="12" x="378" y="90" /><rect fill="#111111" height="12" stroke="none" width="12" x="426" y="90" /><rect fill="#111111" height="12" stroke="none" width="12" x="378" y="102" /><rect fill="#111111" height="12" stroke="none" width="12" x="426" y="102" /><rect fill="#111111" height="12" stroke="none" width="12" x="378" y="114" /><rect fill="#111111" height="12" stroke="none" width="12" x="426" y="114" /><rect fill="#111111" height="12" stroke="none" width="36" x="390" y="126" /><rect fill="#111111" height="12" stroke="none" width="12" x="450" y="66" /><rect fill="#111111" height="12" stroke="none" width="12" x="498" y="66" /><rect fill="#111111" height="12" stroke="none" width="12" x="450" y="78" /><rect fill="#111111" height="12" stroke="none" width="12" x="498" y="78" /><rect fill="#111111" height="12" stroke="none" width="12" x="450" y="90" /><rect fill="#111111" height="12" stroke="none" width="12" x="498" y="90" /><rect fill="#111111" height="12" stroke="none" width="12" x="450" y="102" /><rect fill="#111111" height="12" stroke="none" width="12" x="498" y="102" /><rect fill="#111111" height="12" stroke="none" width="12" x="462" y="114" /><rect fill="#111111" height="12" stroke="none" width="12" x="486" y="114" /><rect fill="#111111" height="12" stroke="none" width="12" x="474" y="126" /><rect fill="#111111" height="12" stroke="none" width="12" x="522" y="66" /><rect fill="#111111" height="12" stroke="none" width="12" x="570" y="66" /><rect fill="#111111" height="12" stroke="none" width="12" x="522" y="78" /><rect fill="#111111" height="12" stroke="none" width="12" x="570" y="78" /><rect fill="#111111" height="12" stroke="none" width="48" x="534" y="90" /><rect fill="#111111" height="12" stroke="none" width="12" x="570" y="102" /><rect fill="#111111" height="12" stroke="none" width="12" x="570" y="114" /><rect fill="#111111" height="12" stroke="none" width="36" x="534" y="126" /><rect fill="#111111" height="12" stroke="none" width="12" x="546" y="30" /><rect fill="#111111" height="12" stroke="none" width="12" x="558" y="18" /><rect fill="#111111" height="12" stroke="none" width="24" x="690" y="54" /><rect fill="#111111" height="12" stroke="none" width="12" x="678" y="66" /><rect fill="#111111" height="12" stroke="none" width="12" x="714" y="66" /><rect fill="#111111" height="12" stroke="none" width="12" x="678" y="78" /><rect fill="#111111" height="12" stroke="none" width="36" x="666" y="90" /><rect fill="#111111" height="12" stroke="none" width="12" x="678" y="102" /><rect fill="#111111" height="12" stroke="none" width="12" x="678" y="114" /><rect fill="#111111" height="12" stroke="none" width="12" x="678" y="126" /><rect fill="#111111" height="12" stroke="none" width="36" x="750" y="66" /><rect fill="#111111" height="12" stroke="none" width="12" x="738" y="78" /><rect fill="#111111" height="12" stroke="none" width="12" x="786" y="78" /><rect fill="#111111" height="12" stroke="none" width="12" x="738" y="90" /><rect fill="#111111" height="12" stroke="none" width="12" x="786" y="90" /><rect fill="#111111" height="12" stroke="none" width="12" x="738" y="102" /><rect fill="#111111" height="12" stroke="none" width="12" x="786" y="102" /><rect fill="#111111" height="12" stroke="none" width="12" x="738" y="114" /><rect fill="#111111" height="12" stroke="none" width="12" x="786" y="114" /><rect fill="#111111" height="12" stroke="none" width="36" x="750" y="126" /><rect fill="#111111" height="12" stroke="none" width="12" x="822" y="54" /><rect fill="#111111" height="12" stroke="none" width="12" x="822" y="66" /><rect fill="#111111" height="12" stroke="none" width="36" x="810" y="78" /><rect fill="#111111" height="12" stroke="none" width="12" x="822" y="90" /><rect fill="#111111" height="12" stroke="none" width="12" x="822" y="102" /><rect fill="#111111" height="12" stroke="none" width="12" x="822" y="114" /><rect fill="#111111" height="12" stroke="none" width="12" x="858" y="114" /><rect fill="#111111" height="12" stroke="none" width="24" x="834" y="126" /><rect fill="#111111" height="12" stroke="none" width="36" x="894" y="66" /><rect fill="#111111" height="12" stroke="none" width="12" x="882" y="78" /><rect fill="#111111" height="12" stroke="none" width="12" x="930" y="78" /><rect fill="#111111" height="12" stroke="none" width="12" x="882" y="90" /><rect fill="#111111" height="12" stroke="none" width="12" x="930" y="90" /><rect fill="#111111" height="12" stroke="none" width="12" x="882" y="102" /><rect fill="#111111" height="12" stroke="none" width="12" x="930" y="102" /><rect fill="#111111" height="12" stroke="none" width="12" x="882" y="114" /><rect fill="#111111" height="12" stroke="none" width="12" x="930" y="114" /><rect fill="#111111" height="12" stroke="none" width="36" x="894" y="126" /><rect fill="#111111" height="12" stroke="none" width="48" x="1038" y="66" /><rect fill="#111111" height="12" stroke="none" width="12" x="1026" y="78" /><rect fill="#111111" height="12" stroke="none" width="36" x="1038" y="90" /><rect fill="#111111" height="12" stroke="none" width="12" x="1074" y="102" /><rect fill="#111111" height="12" stroke="none" width="12" x="1074" y="114" /><rect fill="#111111" height="12" stroke="none" width="48" x="1026" y="126" /><rect fill="#111111" height="12" stroke="none" width="12" x="1110" y="54" /><rect fill="#111111" height="12" stroke="none" width="12" x="1110" y="66" /><rect fill="#111111" height="12" stroke="none" width="36" x="1098" y="78" /><rect fill="#111111" height="12" stroke="none" width="12" x="1110" y="90" /><rect fill="#111111" height="12" stroke="none" width="12" x="1110" y="102" /><rect fill="#111111" height="12" stroke="none" width="12" x="1110" y="114" /><rect fill="#111111" height="12" stroke="none" width="12" x="1146" y="114" /><rect fill="#111111" height="12" stroke="none" width="24" x="1122" y="126" /><rect fill="#111111" height="12" stroke="none" width="12" x="1170" y="66" /><rect fill="#111111" height="12" stroke="none" width="24" x="1194" y="66" /><rect fill="#111111" height="12" stroke="none" width="24" x="1170" y="78" /><rect fill="#111111" height="12" stroke="none" width="12" x="1218" y="78" /><rect fill="#111111" height="12" stroke="none" width="12" x="1170" y="90" /><rect fill="#111111" height="12" stroke="none" width="12" x="1170" y="102" /><rect fill="#111111" height="12" stroke="none" width="12" x="1170" y="114" /><rect fill="#111111" height="12" stroke="none" width="12" x="1170" y="126" /><rect fill="#111111" height="12" stroke="none" width="12" x="1266" y="54" /><rect fill="#111111" height="12" stroke="none" width="24" x="1254" y="78" /><rect fill="#111111" height="12" stroke="none" width="12" x="1266" y="90" /><rect fill="#111111" height="12" stroke="none" width="12" x="1266" y="102" /><rect fill="#111111" height="12" stroke="none" width="12" x="1266" y="114" /><rect fill="#111111" height="12" stroke="none" width="36" x="1254" y="126" /><rect fill="#111111" height="12" stroke="none" width="48" x="1302" y="66" /><rect fill="#111111" height="12" stroke="none" width="12" x="1302" y="78" /><rect fill="#111111" height="12" stroke="none" width="12" x="1350" y="78" /><rect fill="#111111" height="12" stroke="none" width="12" x="1302" y="90" /><rect fill="#111111" height="12" stroke="none" width="12" x="1350" y="90" /><rect fill="#111111" height="12" stroke="none" width="48" x="1302" y="102" /><rect fill="#111111" height="12" stroke="none" width="12" x="1302" y="114" /><rect fill="#111111" height="12" stroke="none" width="12" x="1302" y="126" /><rect fill="#111111" height="12" stroke="none" width="36" x="42" y="208" /><rect fill="#111111" height="12" stroke="none" width="12" x="78" y="220" /><rect fill="#111111" height="12" stroke="none" width="48" x="42" y="232" /><rect fill="#111111" height="12" stroke="none" width="12" x="30" y="244" /><rect fill="#111111" height="12" stroke="none" width="12" x="78" y="244" /><rect fill="#111111" height="12" stroke="none" width="12" x="30" y="256" /><rect fill="#111111" height="12" stroke="none" width="12" x="78" y="256" /><rect fill="#111111" height="12" stroke="none" width="48" x="42" y="268" /><rect fill="#111111" height="12" stroke="none" width="12" x="174" y="208" /><rect fill="#111111" height="12" stroke="none" width="12" x="222" y="208" /><rect fill="#111111" height="12" stroke="none" width="12" x="174" y="220" /><rect fill="#111111" height="12" stroke="none" width="12" x="222" y="220" /><rect fill="#111111" height="12" stroke="none" width="12" x="174" y="232" /><rect fill="#111111" height="12" stroke="none" width="12" x="222" y="232" /><rect fill="#111111" height="12" stroke="none" width="12" x="174" y="244" /><rect fill="#111111" height="12" stroke="none" width="12" x="222" y="244" /><rect fill="#111111" height="12" stroke="none" width="12" x="186" y="256" /><rect fill="#111111" height="12" stroke="none" width="12" x="210" y="256" /><rect fill="#111111" height="12" stroke="none" width="12" x="198" y="268" /><rect fill="#111111" height="12" stroke="none" width="48" x="258" y="208" /><rect fill="#111111" height="12" stroke="none" width="12" x="246" y="220" /><rect fill="#111111" height="12" stroke="none" width="36" x="258" y="232" /><rect fill="#111111" height="12" stroke="none" width="12" x="294" y="244" /><rect fill="#111111" height="12" stroke="none" width="12" x="294" y="256" /><rect fill="#111111" height="12" stroke="none" width="48" x="246" y="268" /><rect fill="#111111" height="12" stroke="none" width="12" x="330" y="196" /><rect fill="#111111" height="12" stroke="none" width="12" x="330" y="208" /><rect fill="#111111" height="12" stroke="none" width="36" x="318" y="220" /><rect fill="#111111" height="12" stroke="none" width="12" x="330" y="232" /><rect fill="#111111" height="12" stroke="none" width="12" x="330" y="244" /><rect fill="#111111" height="12" stroke="none" width="12" x="330" y="256" /><rect fill="#111111" height="12" stroke="none" width="12" x="366" y="256" /><rect fill="#111111" height="12" stroke="none" width="24" x="342" y="268" /><rect fill="#111111" height="12" stroke="none" width="12" x="390" y="208" /><rect fill="#111111" height="12" stroke="none" width="12" x="438" y="208" /><rect fill="#111111" height="12" stroke="none" width="12" x="390" y="220" /><rect fill="#111111" height="12" stroke="none" width="12" x="438" y="220" /><rect fill="#111111" height="12" stroke="none" width="12" x="390" y="232" /><rect fill="#111111" height="12" stroke="none" width="12" x="438" y="232" /><rect fill="#111111" height="12" stroke="none" width="12" x="390" y="244" /><rect fill="#111111" height="12" stroke="none" width="12" x="438" y="244" /><rect fill="#111111" height="12" stroke="none" width="12" x="390" y="256" /><rect fill="#111111" height="12" stroke="none" width="24" x="426" y="256" /><rect fill="#111111" height="12" stroke="none" width="24" x="402" y="268" /><rect fill="#111111" height="12" stroke="none" width="12" x="438" y="268" /><rect fill="#111111" height="12" stroke="none" width="48" x="462" y="208" /><rect fill="#111111" height="12" stroke="none" width="12" x="462" y="220" /><rect fill="#111111" height="12" stroke="none" width="12" x="510" y="220" /><rect fill="#111111" height="12" stroke="none" width="12" x="462" y="232" /><rect fill="#111111" height="12" stroke="none" width="12" x="510" y="232" /><rect fill="#111111" height="12" stroke="none" width="48" x="462" y="244" /><rect fill="#111111" height="12" stroke="none" width="12" x="462" y="256" /><rect fill="#111111" height="12" stroke="none" width="12" x="462" y="268" /><rect fill="#111111" height="12" stroke="none" width="36" x="546" y="208" /><rect fill="#111111" height="12" stroke="none" width="12" x="534" y="220" /><rect fill="#111111" height="12" stroke="none" width="12" x="582" y="220" /><rect fill="#111111" height="12" stroke="none" width="60" x="534" y="232" /><rect fill="#111111" height="12" stroke="none" width="12" x="534" y="244" /><rect fill="#111111" height="12" stroke="none" width="12" x="534" y="256" /><rect fill="#111111" height="12" stroke="none" width="48" x="546" y="268" /><rect fill="#111111" height="12" stroke="none" width="48" x="606" y="208" /><rect fill="#111111" height="12" stroke="none" width="12" x="606" y="220" /><rect fill="#111111" height="12" stroke="none" width="12" x="654" y="220" /><rect fill="#111111" height="12" stroke="none" width="12" x="606" y="232" /><rect fill="#111111" height="12" stroke="none" width="12" x="654" y="232" /><rect fill="#111111" height="12" stroke="none" width="12" x="606" y="244" /><rect fill="#111111" height="12" stroke="none" width="12" x="654" y="244" /><rect fill="#111111" height="12" stroke="none" width="12" x="606" y="256" /><rect fill="#111111" height="12" stroke="none" width="12" x="654" y="256" /><rect fill="#111111" height="12" stroke="none" width="12" x="606" y="268" /><rect fill="#111111" height="12" stroke="none" width="12" x="654" y="268" /><rect fill="#111111" height="12" stroke="none" width="12" x="678" y="196" /><rect fill="#111111" height="12" stroke="none" width="12" x="678" y="208" /><rect fill="#111111" height="12" stroke="none" width="12" x="678" y="220" /><rect fill="#111111" height="12" stroke="none" width="12" x="714" y="220" /><rect fill="#111111" height="12" stroke="none" width="12" x="678" y="232" /><rect fill="#111111" height="12" stroke="none" width="12" x="702" y="232" /><rect fill="#111111" height="12" stroke="none" width="24" x="678" y="244" /><rect fill="#111111" height="12" stroke="none" width="12" x="678" y="256" /><rect fill="#111111" height="12" stroke="none" width="12" x="702" y="256" /><rect fill="#111111" height="12" stroke="none" width="12" x="678" y="268" /><rect fill="#111111" height="12" stroke="none" width="12" x="714" y="268" /><rect fill="#111111" height="12" stroke="none" width="36" x="750" y="208" /><rect fill="#111111" height="12" stroke="none" width="12" x="786" y="220" /><rect fill="#111111" height="12" stroke="none" width="48" x="750" y="232" /><rect fill="#111111" height="12" stroke="none" width="12" x="738" y="244" /><rect fill="#111111" height="12" stroke="none" width="12" x="786" y="244" /><rect fill="#111111" height="12" stroke="none" width="12" x="738" y="256" /><rect fill="#111111" height="12" stroke="none" width="12" x="786" y="256" /><rect fill="#111111" height="12" stroke="none" width="48" x="750" y="268" /><rect fill="#111111" height="12" stroke="none" width="12" x="882" y="208" /><rect fill="#111111" height="12" stroke="none" width="12" x="930" y="208" /><rect fill="#111111" height="12" stroke="none" width="12" x="882" y="220" /><rect fill="#111111" height="12" stroke="none" width="12" x="930" y="220" /><rect fill="#111111" height="12" stroke="none" width="12" x="882" y="232" /><rect fill="#111111" height="12" stroke="none" width="12" x="930" y="232" /><rect fill="#111111" height="12" stroke="none" width="12" x="882" y="244" /><rect fill="#111111" height="12" stroke="none" width="12" x="930" y="244" /><rect fill="#111111" height="12" stroke="none" width="12" x="894" y="256" /><rect fill="#111111" height="12" stroke="none" width="12" x="918" y="256" /><rect fill="#111111" height="12" stroke="none" width="12" x="906" y="268" /><rect fill="#111111" height="12" stroke="none" width="12" x="1062" y="196" /><rect fill="#111111" height="12" stroke="none" width="24" x="1050" y="220" /><rect fill="#111111" height="12" stroke="none" width="12" x="1062" y="232" /><rect fill="#111111" height="12" stroke="none" width="12" x="1062" y="244" /><rect fill="#111111" height="12" stroke="none" width="12" x="1026" y="256" /><rect fill="#111111" height="12" stroke="none" width="12" x="1062" y="256" /><rect fill="#111111" height="12" stroke="none" width="24" x="1038" y="268" /><rect fill="#111111" height="12" stroke="none" width="36" x="1098" y="208" /><rect fill="#111111" height="12" stroke="none" width="12" x="1086" y="220" /><rect fill="#111111" height="12" stroke="none" width="12" x="1134" y="220" /><rect fill="#111111" height="12" stroke="none" width="60" x="1086" y="232" /><rect fill="#111111" height="12" stroke="none" width="12" x="1086" y="244" /><rect fill="#111111" height="12" stroke="none" width="12" x="1086" y="256" /><rect fill="#111111" height="12" stroke="none" width="48" x="1098" y="268" /><rect fill="#111111" height="12" stroke="none" width="12" x="1206" y="196" /><rect fill="#111111" height="12" stroke="none" width="12" x="1206" y="208" /><rect fill="#111111" height="12" stroke="none" width="48" x="1170" y="220" /><rect fill="#111111" height="12" stroke="none" width="12" x="1158" y="232" /><rect fill="#111111" height="12" stroke="none" width="12" x="1206" y="232" /><rect fill="#111111" height="12" stroke="none" width="12" x="1158" y="244" /><rect fill="#111111" height="12" stroke="none" width="12" x="1206" y="244" /><rect fill="#111111" height="12" stroke="none" width="12" x="1158" y="256" /><rect fill="#111111" height="12" stroke="none" width="12" x="1206" y="256" /><rect fill="#111111" height="12" stroke="none" width="48" x="1170" y="268" /><rect fill="#111111" height="12" stroke="none" width="48" x="1230" y="208" /><rect fill="#111111" height="12" stroke="none" width="12" x="1230" y="220" /><rect fill="#111111" height="12" stroke="none" width="12" x="1278" y="220" /><rect fill="#111111" height="12" stroke="none" width="12" x="1230" y="232" /><rect fill="#111111" height="12" stroke="none" width="12" x="1278" y="232" /><rect fill="#111111" height="12" stroke="none" width="12" x="1230" y="244" /><rect fill="#111111" height="12" stroke="none" width="12" x="1278" y="244" /><rect fill="#111111" height="12" stroke="none" width="12" x="1230" y="256" /><rect fill="#111111" height="12" stroke="none" width="12" x="1278" y="256" /><rect fill="#111111" height="12" stroke="none" width="12" x="1230" y="268" /><rect fill="#111111" height="12" stroke="none" width="12" x="1278" y="268" /><rect fill="#111111" height="12" stroke="none" width="36" x="1314" y="208" /><rect fill="#111111" height="12" stroke="none" width="12" x="1302" y="220" /><rect fill="#111111" height="12" stroke="none" width="12" x="1350" y="220" /><rect fill="#111111" height="12" stroke="none" width="12" x="1302" y="232" /><rect fill="#111111" height="12" stroke="none" width="12" x="1350" y="232" /><rect fill="#111111" height="12" stroke="none" width="12" x="1302" y="244" /><rect fill="#111111" height="12" stroke="none" width="12" x="1350" y="244" /><rect fill="#111111" height="12" stroke="none" width="12" x="1302" y="256" /><rect fill="#111111" height="12" stroke="none" width="12" x="1350" y="256" /><rect fill="#111111" height="12" stroke="none" width="36" x="1314" y="268" /><rect fill="#111111" height="12" stroke="none" width="24" x="1374" y="208" /><rect fill="#111111" height="12" stroke="none" width="12" x="1410" y="208" /><rect fill="#111111" height="12" stroke="none" width="12" x="1374" y="220" /><rect fill="#111111" height="12" stroke="none" width="12" x="1398" y="220" /><rect fill="#111111" height="12" stroke="none" width="12" x="1422" y="220" /><rect fill="#111111" height="12" stroke="none" width="12" x="1374" y="232" /><rect fill="#111111" height="12" stroke="none" width="12" x="1398" y="232" /><rect fill="#111111" height="12" stroke="none" width="12" x="1422" y="232" /><rect fill="#111111" height="12" stroke="none" width="12" x="1374" y="244" /><rect fill="#111111" height="12" stroke="none" width="12" x="1398" y="244" /><rect fill="#111111" height="12" stroke="none" width="12" x="1422" y="244" /><rect fill="#111111" height="12" stroke="none" width="12" x="1374" y="256" /><rect fill="#111111" height="12" stroke="none" width="12" x="1398" y="256" /><rect fill="#111111" height="12" stroke="none" width="12" x="1422" y="256" /><rect fill="#111111" height="12" stroke="none" width="12" x="1374" y="268" /><rect fill="#111111" height="12" stroke="none" width="12" x="1398" y="268" /><rect fill="#111111" height="12" stroke="none" width="12" x="1422" y="268" /></svg>